<svg xmlns="http://www.w3.org/2000/svg" width="256" height="256" viewBox="0 0 256 256">
  <rect width="256" height="256" rx="52" fill="#080c0a"/>
  <circle cx="128" cy="52"  r="11" fill="#00e5a0"/>
  <circle cx="196" cy="94"  r="10" fill="#00e5a0"/>
  <circle cx="172" cy="178" r="10" fill="#00e5a0"/>
  <circle cx="84"  cy="178" r="10" fill="#00e5a0"/>
  <circle cx="60"  cy="94"  r="10" fill="#00e5a0"/>
  <line x1="128" y1="52"  x2="196" y2="94"  stroke="#00e5a0" stroke-width="2" opacity="0.35"/>
  <line x1="196" y1="94"  x2="172" y2="178" stroke="#00e5a0" stroke-width="2" opacity="0.35"/>
  <line x1="172" y1="178" x2="84"  y2="178" stroke="#00e5a0" stroke-width="2" opacity="0.35"/>
  <line x1="84"  y1="178" x2="60"  y2="94"  stroke="#00e5a0" stroke-width="2" opacity="0.35"/>
  <line x1="60"  y1="94"  x2="128" y2="52"  stroke="#00e5a0" stroke-width="2" opacity="0.35"/>
  <circle cx="128" cy="122" r="16" fill="#00e5a0"/>
  <line x1="128" y1="122" x2="128" y2="52"  stroke="#00e5a0" stroke-width="2" opacity="0.7"/>
  <line x1="128" y1="122" x2="196" y2="94"  stroke="#00e5a0" stroke-width="2" opacity="0.7"/>
  <line x1="128" y1="122" x2="172" y2="178" stroke="#00e5a0" stroke-width="2" opacity="0.7"/>
  <line x1="128" y1="122" x2="84"  y2="178" stroke="#00e5a0" stroke-width="2" opacity="0.7"/>
  <line x1="128" y1="122" x2="60"  y2="94"  stroke="#00e5a0" stroke-width="2" opacity="0.7"/>
</svg>