<!-- GENERATED by scripts/build_brand_assets.py — do not edit; edit the master and re-run. -->
<svg xmlns="http://www.w3.org/2000/svg" viewBox="0 0 100 100" width="100" height="100">
  <rect width="100" height="100" fill="#F4EFE4"/>
  <circle cx="50" cy="50" r="42" fill="none" stroke="#221E17" stroke-width="2.2" opacity="0.85"/>
  <line x1="90.57" y1="60.87" x2="84.29" y2="59.19" stroke="#221E17" stroke-width="2.4" stroke-linecap="round" opacity="0.6"/>
  <line x1="79.7" y1="79.7" x2="77.22" y2="77.22" stroke="#221E17" stroke-width="2" stroke-linecap="round" opacity="0.45"/>
  <line x1="60.87" y1="90.57" x2="59.19" y2="84.29" stroke="#221E17" stroke-width="2.4" stroke-linecap="round" opacity="0.6"/>
  <line x1="39.13" y1="90.57" x2="40.04" y2="87.19" stroke="#221E17" stroke-width="2" stroke-linecap="round" opacity="0.45"/>
  <line x1="20.3" y1="79.7" x2="24.9" y2="75.1" stroke="#221E17" stroke-width="2.4" stroke-linecap="round" opacity="0.6"/>
  <line x1="9.43" y1="60.87" x2="12.81" y2="59.96" stroke="#221E17" stroke-width="2" stroke-linecap="round" opacity="0.45"/>
  <line x1="9.43" y1="39.13" x2="15.71" y2="40.81" stroke="#221E17" stroke-width="2.4" stroke-linecap="round" opacity="0.6"/>
  <line x1="20.3" y1="20.3" x2="22.78" y2="22.78" stroke="#221E17" stroke-width="2" stroke-linecap="round" opacity="0.45"/>
  <line x1="39.13" y1="9.43" x2="40.81" y2="15.71" stroke="#221E17" stroke-width="2.4" stroke-linecap="round" opacity="0.6"/>
  <line x1="60.87" y1="9.43" x2="59.96" y2="12.81" stroke="#221E17" stroke-width="2" stroke-linecap="round" opacity="0.45"/>
  <line x1="90.57" y1="39.13" x2="87.19" y2="40.04" stroke="#221E17" stroke-width="2" stroke-linecap="round" opacity="0.45"/>
  <line class="ember" x1="79.7" y1="20.3" x2="74.04" y2="25.96" stroke="#A34E13" stroke-width="3" stroke-linecap="round"/>
  <circle class="ember" cx="79.7" cy="20.3" r="3" fill="#A34E13"/>
  <path d="M50,31 L35,67 M50,31 L65,67" fill="none" stroke="#221E17" stroke-width="6" stroke-linejoin="round" stroke-linecap="round"/>
  <line x1="39.5" y1="56.5" x2="60.5" y2="56.5" stroke="#221E17" stroke-width="4.5" stroke-linecap="round"/>
</svg>