<!-- GENERATED by scripts/build_brand_assets.py — do not edit; edit the master and re-run. -->
<svg xmlns="http://www.w3.org/2000/svg" viewBox="0 0 520 120" width="520" height="120">
  <rect width="520" height="120" fill="#F4EFE4"/>
  <g transform="translate(10,10)">
    <circle cx="50" cy="50" r="42" fill="none" stroke="#221E17" stroke-width="2.2" opacity="0.85"/>
    <line x1="90.57" y1="60.87" x2="84.29" y2="59.19" stroke="#221E17" stroke-width="2.4" stroke-linecap="round" opacity="0.6"/>
    <line x1="79.7" y1="79.7" x2="77.22" y2="77.22" stroke="#221E17" stroke-width="2" stroke-linecap="round" opacity="0.45"/>
    <line x1="60.87" y1="90.57" x2="59.19" y2="84.29" stroke="#221E17" stroke-width="2.4" stroke-linecap="round" opacity="0.6"/>
    <line x1="39.13" y1="90.57" x2="40.04" y2="87.19" stroke="#221E17" stroke-width="2" stroke-linecap="round" opacity="0.45"/>
    <line x1="20.3" y1="79.7" x2="24.9" y2="75.1" stroke="#221E17" stroke-width="2.4" stroke-linecap="round" opacity="0.6"/>
    <line x1="9.43" y1="60.87" x2="12.81" y2="59.96" stroke="#221E17" stroke-width="2" stroke-linecap="round" opacity="0.45"/>
    <line x1="9.43" y1="39.13" x2="15.71" y2="40.81" stroke="#221E17" stroke-width="2.4" stroke-linecap="round" opacity="0.6"/>
    <line x1="20.3" y1="20.3" x2="22.78" y2="22.78" stroke="#221E17" stroke-width="2" stroke-linecap="round" opacity="0.45"/>
    <line x1="39.13" y1="9.43" x2="40.81" y2="15.71" stroke="#221E17" stroke-width="2.4" stroke-linecap="round" opacity="0.6"/>
    <line x1="60.87" y1="9.43" x2="59.96" y2="12.81" stroke="#221E17" stroke-width="2" stroke-linecap="round" opacity="0.45"/>
    <line x1="90.57" y1="39.13" x2="87.19" y2="40.04" stroke="#221E17" stroke-width="2" stroke-linecap="round" opacity="0.45"/>
    <line class="ember" x1="79.7" y1="20.3" x2="74.04" y2="25.96" stroke="#A34E13" stroke-width="3" stroke-linecap="round"/>
    <circle class="ember" cx="79.7" cy="20.3" r="3" fill="#A34E13"/>
    <path d="M40.11 59.5 38.73 54.66H32.96L31.58 59.5H28.62L33.92 41.35H37.9L43.21 59.5ZM35.95 44.29H35.74L33.51 52.25H38.19ZM55.52 41.35V54.64Q55.52 55.81 55.12 56.77Q54.71 57.73 53.97 58.41Q53.23 59.08 52.19 59.45Q51.15 59.81 49.88 59.81Q47.48 59.81 46.07 58.62Q44.65 57.42 44.23 55.31L46.99 54.74Q47.22 55.86 47.87 56.61Q48.52 57.37 49.9 57.37Q51.18 57.37 51.89 56.6Q52.61 55.83 52.61 54.25V43.8H46.29V41.35ZM68.87 50.82 68.95 45.36H68.74L65.1 54.69L61.46 45.36H61.25L61.33 50.82V59.5H58.76V41.35H62.32L65.1 48.55H65.28L68.09 41.35H71.44V59.5H68.87Z" fill="#221E17"/>
  </g>
  <line x1="128" y1="30" x2="128" y2="90" stroke="#221E17" stroke-width="1" opacity="0.22"/>
  <path d="M170.66 74Q168.69 74 167.7 72.99Q166.72 71.98 166.51 70.35H166.3Q165.67 72.32 164.01 73.41Q162.35 74.5 159.79 74.5Q156.47 74.5 154.49 72.76Q152.52 71.02 152.52 67.95Q152.52 64.8 154.85 63.14Q157.18 61.48 162.01 61.48H166.17V59.8Q166.17 55.39 161.51 55.39Q159.41 55.39 158.11 56.21Q156.8 57.03 155.92 58.38L153.19 56.15Q154.12 54.39 156.3 53.1Q158.48 51.82 161.93 51.82Q166.04 51.82 168.4 53.8Q170.75 55.77 170.75 59.51V70.39H173.48V74ZM161.09 71.14Q163.31 71.14 164.74 70.14Q166.17 69.13 166.17 67.53V64.38H162.1Q157.14 64.38 157.14 67.36V68.2Q157.14 69.67 158.19 70.41Q159.24 71.14 161.09 71.14ZM183.99 74 176.22 52.33H180.96L183.94 61.48L186.76 70.18H187.01L189.82 61.48L192.81 52.33H197.38L189.61 74ZM211.46 74.5Q208.98 74.5 207.01 73.71Q205.04 72.91 203.69 71.44Q202.35 69.97 201.63 67.89Q200.92 65.81 200.92 63.21Q200.92 60.6 201.65 58.5Q202.39 56.4 203.71 54.91Q205.04 53.42 206.93 52.62Q208.82 51.82 211.13 51.82Q213.39 51.82 215.24 52.6Q217.09 53.38 218.39 54.81Q219.69 56.23 220.39 58.21Q221.08 60.18 221.08 62.58V64.3H205.54V65.01Q205.54 67.57 207.14 69.19Q208.73 70.81 211.55 70.81Q213.65 70.81 215.14 69.91Q216.63 69 217.55 67.49L220.41 70.01Q219.32 71.9 217.07 73.2Q214.82 74.5 211.46 74.5ZM211.13 55.31Q209.91 55.31 208.88 55.73Q207.85 56.15 207.11 56.93Q206.38 57.7 205.96 58.75Q205.54 59.8 205.54 61.06V61.36H216.42V60.94Q216.42 58.38 214.97 56.84Q213.52 55.31 211.13 55.31ZM225.79 70.3H231.55V56.02H225.79V52.33H236.12V58.08H236.38Q236.67 56.95 237.22 55.9Q237.76 54.85 238.6 54.07Q239.44 53.29 240.66 52.81Q241.88 52.33 243.52 52.33H246.12V56.7H241.84Q239.32 56.7 237.72 58.19Q236.12 59.68 236.12 62.2V70.3H243.98V74H225.79ZM267.46 74Q265.49 74 264.5 72.99Q263.52 71.98 263.31 70.35H263.1Q262.47 72.32 260.81 73.41Q259.15 74.5 256.59 74.5Q253.27 74.5 251.29 72.76Q249.32 71.02 249.32 67.95Q249.32 64.8 251.65 63.14Q253.98 61.48 258.81 61.48H262.97V59.8Q262.97 55.39 258.31 55.39Q256.21 55.39 254.91 56.21Q253.6 57.03 252.72 58.38L249.99 56.15Q250.92 54.39 253.1 53.1Q255.28 51.82 258.73 51.82Q262.84 51.82 265.2 53.8Q267.55 55.77 267.55 59.51V70.39H270.28V74ZM257.89 71.14Q260.11 71.14 261.54 70.14Q262.97 69.13 262.97 67.53V64.38H258.9Q253.94 64.38 253.94 67.36V68.2Q253.94 69.67 254.99 70.41Q256.04 71.14 257.89 71.14ZM294.94 76.35Q294.94 79.71 292.13 81.31Q289.31 82.9 283.56 82.9Q280.74 82.9 278.83 82.55Q276.92 82.19 275.72 81.52Q274.53 80.85 274 79.88Q273.48 78.91 273.48 77.7Q273.48 75.93 274.46 74.94Q275.45 73.96 277.26 73.5V73.08Q276.17 72.66 275.51 71.9Q274.86 71.14 274.86 69.93Q274.86 68.33 275.96 67.51Q277.05 66.69 278.77 66.27V66.06Q276.8 65.14 275.7 63.46Q274.61 61.78 274.61 59.43Q274.61 57.7 275.24 56.3Q275.87 54.89 277.03 53.9Q278.18 52.92 279.8 52.37Q281.42 51.82 283.43 51.82Q285.7 51.82 287.51 52.54V51.82Q287.51 50.56 288.22 49.72Q288.93 48.88 290.4 48.88H294.35V52.5H289.31V53.5Q290.74 54.47 291.5 55.96Q292.25 57.45 292.25 59.43Q292.25 61.15 291.62 62.55Q290.99 63.96 289.84 64.95Q288.68 65.94 287.06 66.46Q285.45 66.99 283.43 66.99Q282 66.99 280.74 66.73Q279.99 66.94 279.23 67.45Q278.48 67.95 278.48 68.83Q278.48 69.84 279.44 70.09Q280.41 70.35 281.84 70.35H286.71Q291.08 70.35 293.01 72Q294.94 73.66 294.94 76.35ZM290.66 76.65Q290.66 75.55 289.77 74.9Q288.89 74.25 286.58 74.25H279.06Q277.47 75.01 277.47 76.69Q277.47 77.91 278.5 78.79Q279.53 79.67 281.92 79.67H285.32Q287.93 79.67 289.29 78.89Q290.66 78.12 290.66 76.65ZM283.43 63.84Q285.66 63.84 286.71 62.79Q287.76 61.74 287.76 59.97V58.84Q287.76 57.07 286.71 56.02Q285.66 54.97 283.43 54.97Q281.21 54.97 280.16 56.02Q279.11 57.07 279.11 58.84V59.97Q279.11 61.74 280.16 62.79Q281.21 63.84 283.43 63.84ZM308.26 74.5Q305.78 74.5 303.81 73.71Q301.84 72.91 300.49 71.44Q299.15 69.97 298.43 67.89Q297.72 65.81 297.72 63.21Q297.72 60.6 298.45 58.5Q299.19 56.4 300.51 54.91Q301.84 53.42 303.73 52.62Q305.62 51.82 307.93 51.82Q310.19 51.82 312.04 52.6Q313.89 53.38 315.19 54.81Q316.49 56.23 317.19 58.21Q317.88 60.18 317.88 62.58V64.3H302.34V65.01Q302.34 67.57 303.94 69.19Q305.53 70.81 308.35 70.81Q310.45 70.81 311.94 69.91Q313.43 69 314.35 67.49L317.21 70.01Q316.12 71.9 313.87 73.2Q311.62 74.5 308.26 74.5ZM307.93 55.31Q306.71 55.31 305.68 55.73Q304.65 56.15 303.91 56.93Q303.18 57.7 302.76 58.75Q302.34 59.8 302.34 61.06V61.36H313.22V60.94Q313.22 58.38 311.77 56.84Q310.32 55.31 307.93 55.31ZM323.52 78.7H333.09V56.02H323.26V52.33H337.67V76.9Q337.67 79.33 336.3 80.87Q334.94 82.4 332.08 82.4H323.52ZM335.4 48.38Q333.64 48.38 332.94 47.67Q332.25 46.95 332.25 45.9V45.02Q332.25 43.97 332.94 43.26Q333.64 42.54 335.36 42.54Q337.12 42.54 337.82 43.26Q338.51 43.97 338.51 45.02V45.9Q338.51 46.95 337.82 47.67Q337.12 48.38 335.4 48.38ZM356.2 74.5Q353.81 74.5 351.89 73.71Q349.98 72.91 348.66 71.44Q347.34 69.97 346.62 67.87Q345.91 65.77 345.91 63.16Q345.91 60.56 346.62 58.46Q347.34 56.36 348.66 54.89Q349.98 53.42 351.89 52.62Q353.81 51.82 356.2 51.82Q358.59 51.82 360.5 52.62Q362.42 53.42 363.74 54.89Q365.06 56.36 365.78 58.46Q366.49 60.56 366.49 63.16Q366.49 65.77 365.78 67.87Q365.06 69.97 363.74 71.44Q362.42 72.91 360.5 73.71Q358.59 74.5 356.2 74.5ZM356.2 70.89Q358.72 70.89 360.21 69.36Q361.7 67.83 361.7 64.8V61.53Q361.7 58.5 360.21 56.97Q358.72 55.44 356.2 55.44Q353.68 55.44 352.19 56.97Q350.7 58.5 350.7 61.53V64.8Q350.7 67.83 352.19 69.36Q353.68 70.89 356.2 70.89ZM380.86 74.5Q378.38 74.5 376.41 73.71Q374.44 72.91 373.09 71.44Q371.75 69.97 371.03 67.89Q370.32 65.81 370.32 63.21Q370.32 60.6 371.05 58.5Q371.79 56.4 373.11 54.91Q374.44 53.42 376.33 52.62Q378.22 51.82 380.53 51.82Q382.79 51.82 384.64 52.6Q386.49 53.38 387.79 54.81Q389.09 56.23 389.79 58.21Q390.48 60.18 390.48 62.58V64.3H374.94V65.01Q374.94 67.57 376.54 69.19Q378.13 70.81 380.95 70.81Q383.05 70.81 384.54 69.91Q386.03 69 386.95 67.49L389.81 70.01Q388.72 71.9 386.47 73.2Q384.22 74.5 380.86 74.5ZM380.53 55.31Q379.31 55.31 378.28 55.73Q377.25 56.15 376.51 56.93Q375.78 57.7 375.36 58.75Q374.94 59.8 374.94 61.06V61.36H385.82V60.94Q385.82 58.38 384.37 56.84Q382.92 55.31 380.53 55.31ZM393.85 74V52.33H397.75V55.14H397.96Q398.47 53.76 399.41 52.79Q400.36 51.82 402.12 51.82Q403.84 51.82 404.79 52.77Q405.73 53.71 405.99 55.35H406.15Q406.74 53.88 407.79 52.85Q408.84 51.82 410.82 51.82Q413.34 51.82 414.32 53.59Q415.31 55.35 415.31 58.75V74H411.4V59.34Q411.4 57.07 410.86 56.21Q410.31 55.35 409.09 55.35Q408 55.35 407.27 56.09Q406.53 56.82 406.53 58.29V74H402.63V59.34Q402.63 57.07 402.1 56.21Q401.58 55.35 400.36 55.35Q399.22 55.35 398.49 56.09Q397.75 56.82 397.75 58.29V74ZM436.86 74Q434.89 74 433.9 72.99Q432.92 71.98 432.71 70.35H432.5Q431.87 72.32 430.21 73.41Q428.55 74.5 425.99 74.5Q422.67 74.5 420.69 72.76Q418.72 71.02 418.72 67.95Q418.72 64.8 421.05 63.14Q423.38 61.48 428.21 61.48H432.37V59.8Q432.37 55.39 427.71 55.39Q425.61 55.39 424.31 56.21Q423 57.03 422.12 58.38L419.39 56.15Q420.32 54.39 422.5 53.1Q424.68 51.82 428.13 51.82Q432.24 51.82 434.6 53.8Q436.95 55.77 436.95 59.51V70.39H439.68V74ZM427.29 71.14Q429.51 71.14 430.94 70.14Q432.37 69.13 432.37 67.53V64.38H428.3Q423.34 64.38 423.34 67.36V68.2Q423.34 69.67 424.39 70.41Q425.44 71.14 427.29 71.14ZM454.3 74Q451.45 74 450.1 72.47Q448.76 70.93 448.76 68.5V56.02H442.08V52.33H446.83Q448.04 52.33 448.55 51.84Q449.05 51.36 449.05 50.1V44.68H453.34V52.33H462.58V56.02H453.34V70.3H462.58V74ZM478.5 74Q475.65 74 474.3 72.47Q472.96 70.93 472.96 68.5V56.02H466.28V52.33H471.03Q472.24 52.33 472.75 51.84Q473.25 51.36 473.25 50.1V44.68H477.54V52.33H486.78V56.02H477.54V70.3H486.78V74Z" fill="#221E17"/>
</svg>