<svg xmlns="http://www.w3.org/2000/svg" viewBox="0 0 520 120" width="520" height="120">
  <g transform="translate(10,10)">
    <circle cx="50" cy="50" r="42" fill="none" stroke="currentColor" stroke-width="2.2" opacity="0.85"/>
    <line x1="90.57" y1="60.87" x2="84.29" y2="59.19" stroke="currentColor" stroke-width="2.4" stroke-linecap="round" opacity="0.6"/>
    <line x1="79.7" y1="79.7" x2="77.22" y2="77.22" stroke="currentColor" stroke-width="2" stroke-linecap="round" opacity="0.45"/>
    <line x1="60.87" y1="90.57" x2="59.19" y2="84.29" stroke="currentColor" stroke-width="2.4" stroke-linecap="round" opacity="0.6"/>
    <line x1="39.13" y1="90.57" x2="40.04" y2="87.19" stroke="currentColor" stroke-width="2" stroke-linecap="round" opacity="0.45"/>
    <line x1="20.3" y1="79.7" x2="24.9" y2="75.1" stroke="currentColor" stroke-width="2.4" stroke-linecap="round" opacity="0.6"/>
    <line x1="9.43" y1="60.87" x2="12.81" y2="59.96" stroke="currentColor" stroke-width="2" stroke-linecap="round" opacity="0.45"/>
    <line x1="9.43" y1="39.13" x2="15.71" y2="40.81" stroke="currentColor" stroke-width="2.4" stroke-linecap="round" opacity="0.6"/>
    <line x1="20.3" y1="20.3" x2="22.78" y2="22.78" stroke="currentColor" stroke-width="2" stroke-linecap="round" opacity="0.45"/>
    <line x1="39.13" y1="9.43" x2="40.81" y2="15.71" stroke="currentColor" stroke-width="2.4" stroke-linecap="round" opacity="0.6"/>
    <line x1="60.87" y1="9.43" x2="59.96" y2="12.81" stroke="currentColor" stroke-width="2" stroke-linecap="round" opacity="0.45"/>
    <line x1="90.57" y1="39.13" x2="87.19" y2="40.04" stroke="currentColor" stroke-width="2" stroke-linecap="round" opacity="0.45"/>
    <line class="ember" x1="79.7" y1="20.3" x2="74.04" y2="25.96" stroke="currentColor" stroke-width="3" stroke-linecap="round"/>
    <circle class="ember" cx="79.7" cy="20.3" r="3" fill="currentColor"/>
    <text x="50" y="59.5" text-anchor="middle" font-family="'IBM Plex Mono',ui-monospace,monospace" font-size="26" font-weight="500" letter-spacing="-1" fill="currentColor">AJM</text>
  </g>
  <line x1="128" y1="30" x2="128" y2="90" stroke="currentColor" stroke-width="1" opacity="0.22"/>
  <text x="150" y="74" font-family="'IBM Plex Mono',ui-monospace,monospace" font-size="42" font-weight="500" letter-spacing="-1" fill="currentColor">averagejoematt</text>
</svg>
