<!-- GENERATED by scripts/build_brand_assets.py — do not edit; edit the master and re-run. -->
<svg xmlns="http://www.w3.org/2000/svg" viewBox="0 0 100 100" width="100" height="100">
  <rect width="100" height="100" fill="#F4EFE4"/>
  <circle cx="50" cy="50" r="42" fill="none" stroke="#221E17" stroke-width="2.2" opacity="0.85"/>
  <line x1="90.57" y1="60.87" x2="84.29" y2="59.19" stroke="#221E17" stroke-width="2.4" stroke-linecap="round" opacity="0.6"/>
  <line x1="79.7" y1="79.7" x2="77.22" y2="77.22" stroke="#221E17" stroke-width="2" stroke-linecap="round" opacity="0.45"/>
  <line x1="60.87" y1="90.57" x2="59.19" y2="84.29" stroke="#221E17" stroke-width="2.4" stroke-linecap="round" opacity="0.6"/>
  <line x1="39.13" y1="90.57" x2="40.04" y2="87.19" stroke="#221E17" stroke-width="2" stroke-linecap="round" opacity="0.45"/>
  <line x1="20.3" y1="79.7" x2="24.9" y2="75.1" stroke="#221E17" stroke-width="2.4" stroke-linecap="round" opacity="0.6"/>
  <line x1="9.43" y1="60.87" x2="12.81" y2="59.96" stroke="#221E17" stroke-width="2" stroke-linecap="round" opacity="0.45"/>
  <line x1="9.43" y1="39.13" x2="15.71" y2="40.81" stroke="#221E17" stroke-width="2.4" stroke-linecap="round" opacity="0.6"/>
  <line x1="20.3" y1="20.3" x2="22.78" y2="22.78" stroke="#221E17" stroke-width="2" stroke-linecap="round" opacity="0.45"/>
  <line x1="39.13" y1="9.43" x2="40.81" y2="15.71" stroke="#221E17" stroke-width="2.4" stroke-linecap="round" opacity="0.6"/>
  <line x1="60.87" y1="9.43" x2="59.96" y2="12.81" stroke="#221E17" stroke-width="2" stroke-linecap="round" opacity="0.45"/>
  <line x1="90.57" y1="39.13" x2="87.19" y2="40.04" stroke="#221E17" stroke-width="2" stroke-linecap="round" opacity="0.45"/>
  <line class="ember" x1="79.7" y1="20.3" x2="74.04" y2="25.96" stroke="#A34E13" stroke-width="3" stroke-linecap="round"/>
  <circle class="ember" cx="79.7" cy="20.3" r="3" fill="#A34E13"/>
  <path d="M40.11 59.5 38.73 54.66H32.96L31.58 59.5H28.62L33.92 41.35H37.9L43.21 59.5ZM35.95 44.29H35.74L33.51 52.25H38.19ZM55.52 41.35V54.64Q55.52 55.81 55.12 56.77Q54.71 57.73 53.97 58.41Q53.23 59.08 52.19 59.45Q51.15 59.81 49.88 59.81Q47.48 59.81 46.07 58.62Q44.65 57.42 44.23 55.31L46.99 54.74Q47.22 55.86 47.87 56.61Q48.52 57.37 49.9 57.37Q51.18 57.37 51.89 56.6Q52.61 55.83 52.61 54.25V43.8H46.29V41.35ZM68.87 50.82 68.95 45.36H68.74L65.1 54.69L61.46 45.36H61.25L61.33 50.82V59.5H58.76V41.35H62.32L65.1 48.55H65.28L68.09 41.35H71.44V59.5H68.87Z" fill="#221E17"/>
</svg>